<?xml version="1.0" standalone="no"?>
<!DOCTYPE svg PUBLIC "-//W3C//DTD SVG 20010904//EN"
 "http://www.w3.org/TR/2001/REC-SVG-20010904/DTD/svg10.dtd">
<svg version="1.0" xmlns="http://www.w3.org/2000/svg"
 width="892.000000pt" height="896.000000pt" viewBox="0 0 892.000000 896.000000"
 preserveAspectRatio="xMidYMid meet">

<g transform="translate(0.000000,896.000000) scale(0.100000,-0.100000)"
fill="#000000" stroke="none">
<path d="M4195 8950 c-96 -8 -311 -31 -415 -45 -208 -27 -659 -145 -860 -225
-75 -30 -222 -91 -270 -112 -126 -57 -390 -194 -442 -230 -14 -10 -29 -18 -32
-18 -6 0 -338 -221 -346 -230 -3 -3 -23 -19 -45 -36 -48 -35 -54 -40 -180
-144 -219 -182 -460 -426 -626 -635 -35 -44 -66 -82 -69 -85 -3 -3 -14 -18
-26 -35 -11 -16 -38 -54 -59 -84 -189 -270 -354 -566 -465 -831 -29 -69 -58
-138 -65 -155 -25 -54 -112 -318 -139 -420 -15 -55 -34 -122 -41 -150 -8 -27
-16 -61 -19 -75 -2 -14 -16 -86 -30 -160 -26 -141 -53 -373 -58 -500 l-3 -75
1171 -3 c1033 -2 1173 0 1184 13 7 8 20 15 30 15 15 0 20 15 29 88 55 416 254
826 554 1142 245 258 523 431 862 538 424 133 752 136 1240 11 119 -31 408
-164 532 -245 175 -116 357 -277 471 -418 31 -39 65 -80 75 -91 10 -11 30 -40
44 -65 14 -25 29 -47 33 -50 15 -12 124 -208 150 -270 15 -37 35 -82 43 -101
43 -94 102 -310 127 -470 l12 -76 242 -7 c299 -8 1981 -6 2056 3 l55 6 2 91
c3 178 -72 601 -159 899 -16 55 -33 114 -37 130 -10 38 -116 323 -146 390 -12
28 -30 70 -40 95 -86 204 -295 562 -462 790 -260 357 -513 614 -910 925 -32
25 -63 49 -69 54 -10 8 -248 166 -300 198 -19 12 -116 68 -184 106 -98 55
-350 176 -430 207 -30 11 -64 25 -75 30 -30 15 -148 57 -250 90 -49 16 -110
36 -135 44 -110 37 -408 105 -523 120 -17 2 -52 7 -77 10 -354 47 -700 64
-925 46z m650 -2084 c259 -41 516 -122 750 -236 252 -123 458 -274 665 -486
297 -306 458 -595 545 -981 14 -61 25 -123 25 -137 l0 -26 950 0 c627 0 950
-3 950 -10 0 -7 -325 -10 -954 -10 -901 0 -955 1 -960 18 -2 9 -14 67 -26 127
-43 218 -143 470 -255 645 -76 119 -170 236 -290 359 -378 389 -853 630 -1415
718 -162 25 -557 25 -720 0 -462 -72 -895 -260 -1218 -531 -184 -153 -389
-387 -502 -571 -112 -182 -214 -442 -246 -630 -9 -49 -21 -100 -27 -113 l-10
-22 -949 2 c-624 2 -948 6 -948 13 0 7 325 12 946 15 l947 5 22 110 c29 144
56 232 111 363 305 727 1063 1279 1899 1381 50 6 104 13 120 15 71 10 495 -3
590 -18z"/>
<path d="M3528 5953 c-31 -77 -46 -275 -28 -378 l13 -74 -37 -50 c-68 -92 -99
-154 -124 -246 -24 -86 -20 -329 6 -450 11 -49 18 -92 16 -94 -1 -1 -87 -7
-191 -12 -260 -11 -421 -26 -540 -50 -42 -8 -53 -14 -53 -30 0 -22 1 -22 55
-9 60 14 440 41 610 43 144 2 150 1 150 -18 0 -17 -8 -20 -60 -23 -120 -5
-335 -32 -461 -58 -71 -14 -149 -30 -174 -34 -86 -17 -105 -25 -108 -48 -2
-12 0 -22 5 -22 4 0 70 16 145 34 76 19 164 37 195 41 32 3 112 12 178 20 66
8 163 17 215 20 l96 7 48 -66 c27 -37 72 -85 100 -108 28 -24 54 -46 57 -50
11 -15 244 -118 268 -118 13 0 49 -6 80 -14 31 -8 79 -17 108 -21 l51 -7 -39
-51 c-21 -29 -46 -74 -55 -100 -19 -58 -42 -74 -124 -89 -85 -15 -184 3 -239
42 -21 16 -66 64 -99 108 -94 122 -164 172 -244 172 -103 0 -117 -33 -42 -96
93 -75 126 -118 175 -220 55 -113 114 -179 196 -216 42 -19 67 -22 195 -22
l148 -1 1 -125 c0 -69 2 -147 5 -175 l3 -50 -69 -65 c-95 -88 -92 -110 10
-110 52 0 147 31 191 61 42 29 49 74 52 344 2 227 4 253 22 285 19 34 20 34
23 10 2 -14 2 -155 0 -315 -5 -304 -8 -324 -53 -377 -14 -16 -25 -40 -25 -54
0 -22 4 -24 50 -24 59 0 102 16 148 55 76 64 92 151 92 517 0 239 1 248 19
248 19 0 20 -11 23 -322 3 -318 3 -324 27 -372 48 -96 231 -173 256 -108 3 9
-9 37 -31 69 -62 90 -63 99 -64 410 0 168 4 284 9 288 28 16 36 -45 41 -305 5
-281 6 -287 58 -342 47 -51 173 -82 249 -62 36 10 36 33 1 62 -17 15 -50 44
-72 64 l-41 37 -1 283 c-1 222 -5 298 -17 352 -19 78 -55 145 -94 174 l-26 19
49 7 c108 15 255 46 296 63 172 68 278 150 334 258 l29 56 55 -5 c78 -8 284
-20 293 -18 24 6 313 -46 426 -77 70 -19 91 -18 91 4 0 16 -26 24 -185 59
-170 38 -377 64 -621 79 -38 2 -41 4 -33 25 8 21 13 22 131 22 209 -1 475 -20
623 -46 76 -13 105 -8 91 14 -16 26 -284 59 -586 73 -129 6 -236 11 -237 12
-1 1 6 27 14 57 12 40 16 105 17 245 1 184 0 193 -27 269 -40 113 -72 178
-122 244 l-44 59 11 97 c13 112 1 230 -31 302 l-20 44 -64 0 c-70 0 -110 -11
-224 -65 -41 -19 -77 -35 -79 -35 -2 0 -29 -17 -60 -37 -55 -37 -55 -37 -112
-25 -217 44 -591 37 -735 -14 -40 -14 -42 -14 -93 20 -65 44 -225 120 -294
140 -30 9 -78 16 -107 16 -49 0 -54 -2 -65 -27z m873 -859 c203 -4 343 -3 415
5 185 19 302 -14 387 -108 93 -104 129 -261 92 -404 -45 -172 -154 -279 -331
-323 -155 -38 -743 -37 -924 1 -157 34 -291 130 -348 250 -37 77 -57 178 -48
246 16 119 94 237 195 297 51 30 157 53 216 46 22 -2 178 -7 346 -10z"/>
<path d="M3963 4868 c-28 -14 -50 -60 -59 -125 -15 -120 46 -221 128 -210 48
6 66 21 89 72 39 84 16 218 -43 259 -25 18 -82 20 -115 4z"/>
<path d="M4890 4852 c-68 -68 -68 -212 0 -283 39 -42 75 -50 123 -28 84 38
100 230 27 309 -23 25 -36 30 -75 30 -38 0 -52 -5 -75 -28z"/>
<path d="M6 4231 c-6 -10 17 -280 35 -401 6 -41 22 -131 35 -200 14 -69 28
-136 30 -150 12 -62 81 -298 127 -430 109 -315 258 -634 433 -922 84 -139 141
-228 154 -238 3 -3 23 -30 45 -60 101 -141 218 -273 430 -485 264 -265 323
-319 495 -448 309 -232 606 -402 967 -553 100 -42 432 -159 478 -169 11 -2
101 -24 200 -48 99 -25 200 -47 225 -50 25 -3 92 -13 150 -22 454 -70 1072
-56 1530 36 236 47 569 149 810 247 233 94 599 288 800 424 123 83 127 86 220
157 351 269 723 661 979 1031 40 58 181 281 181 287 0 3 8 17 19 31 24 35 158
302 210 417 68 152 148 377 201 562 87 303 160 714 160 896 l0 97 -1185 0
-1184 0 -6 -37 c-27 -166 -74 -335 -126 -450 -10 -24 -19 -45 -19 -48 0 -17
-125 -252 -170 -320 -207 -312 -501 -575 -805 -720 -256 -122 -378 -162 -620
-202 -164 -27 -506 -25 -670 5 -432 77 -813 273 -1116 574 -316 314 -531 731
-594 1149 -5 35 -8 37 -52 43 -73 10 -2361 7 -2367 -3z m2090 -298 c77 -439
262 -790 590 -1117 244 -244 553 -441 878 -561 417 -154 897 -193 1351 -110
489 90 910 306 1264 649 328 319 512 646 596 1061 l22 110 967 3 c648 1 966
-1 966 -8 0 -7 -317 -10 -957 -10 l-958 0 -23 -118 c-74 -380 -255 -710 -555
-1014 -377 -381 -830 -613 -1382 -709 -154 -27 -491 -37 -661 -20 -677 68
-1295 397 -1700 906 -204 257 -341 542 -399 830 l-22 110 -952 3 c-836 2 -951
4 -951 17 0 13 115 15 960 15 l959 0 7 -37z"/>
</g>
</svg>
